<?xml version="1.0" encoding="UTF-8" standalone="no"?>
<!-- Created with Inkscape (http://www.inkscape.org/) -->

<svg
   xmlns:dc="http://purl.org/dc/elements/1.1/"
   xmlns:cc="http://creativecommons.org/ns#"
   xmlns:rdf="http://www.w3.org/1999/02/22-rdf-syntax-ns#"
   xmlns:svg="http://www.w3.org/2000/svg"
   xmlns="http://www.w3.org/2000/svg"
   xmlns:sodipodi="http://sodipodi.sourceforge.net/DTD/sodipodi-0.dtd"
   xmlns:inkscape="http://www.inkscape.org/namespaces/inkscape"
   width="907"
   height="1052.3622"
   id="svg2"
   version="1.1"
   inkscape:version="0.48.3.1 r9886"
   sodipodi:docname="opentalk_bg.svg"
   inkscape:export-filename="/home/cf/Documents/github/opentalk.me/public/images/opentalk_bg.png"
   inkscape:export-xdpi="90"
   inkscape:export-ydpi="90">
  <defs
     id="defs4" />
  <sodipodi:namedview
     id="base"
     pagecolor="#ffffff"
     bordercolor="#666666"
     borderopacity="1.0"
     inkscape:pageopacity="0.0"
     inkscape:pageshadow="2"
     inkscape:zoom="0.39817263"
     inkscape:cx="443.66095"
     inkscape:cy="281.59559"
     inkscape:document-units="px"
     inkscape:current-layer="layer1"
     showgrid="false"
     inkscape:window-width="932"
     inkscape:window-height="1028"
     inkscape:window-x="57"
     inkscape:window-y="24"
     inkscape:window-maximized="0" />
  <metadata
     id="metadata7">
    <rdf:RDF>
      <cc:Work
         rdf:about="">
        <dc:format>image/svg+xml</dc:format>
        <dc:type
           rdf:resource="http://purl.org/dc/dcmitype/StillImage" />
        <dc:title></dc:title>
      </cc:Work>
    </rdf:RDF>
  </metadata>
  <g
     inkscape:label="icons"
     inkscape:groupmode="layer"
     id="layer1"
     style="display:inline">
    <g
       style="fill:#cccccc"
       id="g2994"
       transform="translate(493.80137,170.17514)">
      <path
         id="path2986"
         d="M 42,48 12,48 C 10.344,48 9,46.659 9,45 l 0,-3 c 1.656,0 3,-1.341 3,-3 l 0,-3 C 12,34.344 10.656,33 9,33 L 9,15 c 1.656,0 3,-1.344 3,-3 L 12,9 C 12,7.344 10.656,6 9,6 L 9,3 C 9,1.344 10.344,0 12,0 l 30,0 c 1.659,0 3,1.344 3,3 l 0,42 c 0,1.659 -1.341,3 -3,3 z M 39,24 c 0,-6.627 -5.373,-12 -12,-12 -6.627,0 -12,5.373 -12,12 0,6.627 5.373,12 12,12 l 1.5,0 C 29.328,36 30,35.328 30,34.5 30,33.672 29.328,33 28.5,33 L 27,33 c -4.968,0 -9,-4.029 -9,-9 0,-4.971 4.032,-9 9,-9 4.971,0 9,4.029 9,9 l 0,4.5 C 36,29.328 35.328,30 34.5,30 33.672,30 33,29.328 33,28.5 L 33,24 c 0,-3.312 -2.688,-6 -6,-6 -3.312,0 -6,2.688 -6,6 0,3.312 2.688,6 6,6 1.125,0 2.166,-0.327 3.063,-0.867 C 30.375,31.314 32.232,33 34.5,33 36.984,33 39,30.984 39,28.5 L 39,24 z m -12,3 c -1.659,0 -3,-1.341 -3,-3 0,-1.659 1.341,-3 3,-3 1.659,0 3,1.341 3,3 0,1.659 -1.341,3 -3,3 z M 7.5,12 4.5,12 C 3.672,12 3,11.328 3,10.5 3,9.672 3.672,9 4.5,9 l 3,0 C 8.328,9 9,9.672 9,10.5 9,11.328 8.328,12 7.5,12 z M 3,3 C 3,1.344 4.344,0 6,0 L 6,6 3,6 3,3 z m 3,30 -3,0 0,-18 3,0 0,18 z m -1.5,3 3,0 C 8.328,36 9,36.672 9,37.5 9,38.328 8.328,39 7.5,39 l -3,0 C 3.672,39 3,38.328 3,37.5 3,36.672 3.672,36 4.5,36 z M 6,48 C 4.344,48 3,46.659 3,45 l 0,-3 3,0 0,6 z"
         inkscape:connector-curvature="0"
         style="fill:#cccccc" />
    </g>
    <g
       style="fill:#cccccc"
       id="g3006"
       transform="translate(632.94424,303.60372)">
      <path
         id="path2998"
         d="M 39,48 9,48 C 4.029,48 0,43.971 0,39 L 0,9 C 0,4.029 4.029,0 9,0 l 30,0 c 4.968,0 9,4.029 9,9 l 0,30 c 0,4.971 -4.032,9 -9,9 z M 9,3 C 7.344,3 6,4.344 6,6 6,7.656 7.344,9 9,9 10.656,9 12,7.656 12,6 12,4.344 10.656,3 9,3 z m 33,9 -36,0 0,27 c 0,1.659 1.344,3 3,3 l 30,0 c 1.659,0 3,-1.341 3,-3 l 0,-27 z"
         inkscape:connector-curvature="0"
         style="fill:#cccccc" />
    </g>
    <g
       style="fill:#cccccc"
       id="g3018"
       transform="translate(288.65851,437.88942)">
      <path
         id="path3010"
         d="M 37.131,22.161 C 36.942,22.758 36.624,23.376 36,24 c -3,3 -3,6 -3,6 l 0,3 c 0,1.659 -1.341,3 -3,3 l -12,0 c -1.659,0 -3,-1.341 -3,-3 l 0,-3 C 15,27.819 13.428,25.659 12.561,24.627 12.534,24.597 12.51,24.564 12.489,24.537 12.195,24.195 12,24 12,24 l 0,-0.105 C 10.134,21.411 9,18.351 9,15 9,6.714 15.714,0 24,0 c 8.286,0 15,6.714 15,15 0,2.607 -0.69,5.037 -1.869,7.161 z M 24,6 c -4.971,0 -9,4.029 -9,9 0,3.915 2.514,7.209 6,8.448 L 21,27 c 0,1.659 1.341,3 3,3 1.659,0 3,-1.341 3,-3 l 0,-3.552 C 30.486,22.209 33,18.915 33,15 33,10.029 28.971,6 24,6 z m -4.5,33 9,0 c 0.828,0 1.5,0.672 1.5,1.5 0,0.828 -0.672,1.5 -1.5,1.5 l -9,0 C 18.672,42 18,41.328 18,40.5 18,39.672 18.672,39 19.5,39 z m 3,6 3,0 c 0.828,0 1.5,0.672 1.5,1.5 0,0.828 -0.672,1.5 -1.5,1.5 l -3,0 C 21.672,48 21,47.328 21,46.5 21,45.672 21.672,45 22.5,45 z"
         inkscape:connector-curvature="0"
         style="fill:#cccccc" />
    </g>
    <g
       style="fill:#cccccc"
       id="g3030"
       transform="translate(654.3728,566.46087)">
      <path
         id="path3022"
         d="M 24,0 C 10.746,0 0,10.746 0,24 0,37.254 10.746,48 24,48 37.254,48 48,37.254 48,24 48,10.746 37.254,0 24,0 z m 0,42 C 14.061,42 6,33.939 6,24 6,14.061 14.061,6 24,6 c 9.939,0 18,8.061 18,18 0,9.939 -8.061,18 -18,18 z m 9,-21 -6,0 0,-6 c 0,-1.659 -1.344,-3 -3,-3 -1.656,0 -3,1.341 -3,3 l 0,9 c 0,1.659 1.344,3 3,3 l 9,0 c 1.659,0 3,-1.341 3,-3 0,-1.659 -1.341,-3 -3,-3 z"
         inkscape:connector-curvature="0"
         style="fill:#cccccc" />
    </g>
    <g
       style="fill:#cccccc"
       id="g3042"
       transform="translate(548.65851,697.88944)">
      <path
         id="path3034"
         d="m 39,18 c 4.971,0 9,-4.029 9,-9 0,-4.971 -4.029,-9 -9,-9 l 0,0 C 12,0 9,36 9,36 l 0,1.5 C 9,38.328 9.672,39 10.5,39 11.328,39 12,38.328 12,37.5 L 12,36 c 0,0 0.306,-4.248 3.024,-7.623 0,0.045 -0.024,0.078 -0.024,0.123 0,2.484 2.016,4.5 4.5,4.5 2.484,0 4.5,-2.016 4.5,-4.5 0,-0.756 -0.234,-1.437 -0.564,-2.064 C 24.063,26.766 24.741,27 25.5,27 27.984,27 30,24.984 30,22.5 30,21.744 29.766,21.063 29.436,20.436 30.063,20.766 30.741,21 31.5,21 33.681,21 35.412,19.422 35.823,17.364 36.813,17.748 37.872,18 39,18 z m 3,5.697 c 2.229,-0.453 4.248,-1.446 6,-2.772 L 48,39 c 0,4.971 -4.029,9 -9,9 L 9,48 C 4.029,48 0,43.971 0,39 L 0,9 C 0,4.029 4.029,0 9,0 L 20.541,0 C 18.198,1.746 16.107,3.759 14.295,6 L 9,6 C 7.344,6 6,7.344 6,9 l 0,30 c 0,1.659 1.344,3 3,3 l 30,0 c 1.659,0 3,-1.341 3,-3 l 0,-15.303 z"
         inkscape:connector-curvature="0"
         style="fill:#cccccc" />
    </g>
    <g
       style="fill:#cccccc"
       id="g3054"
       transform="translate(91.51565,957.88943)">
      <path
         id="path3046"
         d="m 18,27 c 1.659,0 3,1.341 3,3 l 0,9 c 0,1.212 -0.732,2.31 -1.851,2.772 C 18.777,41.925 18.387,42 18,42 17.22,42 16.452,41.694 15.879,41.121 L 13.5,38.742 5.121,47.121 c -1.173,1.173 -3.069,1.173 -4.242,0 -1.173,-1.173 -1.173,-3.069 0,-4.242 L 9.258,34.5 6.879,32.121 C 6.021,31.263 5.766,29.973 6.228,28.851 6.69,27.732 7.788,27 9,27 l 9,0 z m 12,-6 c -1.659,0 -3,-1.341 -3,-3 L 27,9 C 27,7.788 27.732,6.69 28.851,6.228 29.223,6.075 29.613,6 30,6 c 0.78,0 1.548,0.306 2.121,0.879 L 34.5,9.258 42.879,0.879 c 1.173,-1.173 3.069,-1.173 4.242,0 1.173,1.173 1.173,3.069 0,4.242 l -8.379,8.379 2.379,2.379 c 0.858,0.858 1.113,2.148 0.651,3.27 C 41.31,20.268 40.212,21 39,21 l -9,0 z M 19.149,6.228 C 20.268,6.69 21,7.788 21,9 l 0,9 c 0,1.659 -1.341,3 -3,3 L 9,21 C 7.788,21 6.69,20.268 6.228,19.149 5.766,18.027 6.021,16.737 6.879,15.879 L 9.258,13.5 0.879,5.121 c -1.173,-1.173 -1.173,-3.069 0,-4.242 1.173,-1.173 3.069,-1.173 4.242,0 L 13.5,9.258 15.879,6.879 C 16.452,6.306 17.22,6 18,6 c 0.387,0 0.777,0.075 1.149,0.228 z m 19.593,28.272 8.379,8.379 c 1.173,1.173 1.173,3.069 0,4.242 -1.173,1.173 -3.069,1.173 -4.242,0 L 34.5,38.742 32.121,41.121 C 31.548,41.694 30.78,42 30,42 29.613,42 29.223,41.925 28.851,41.772 27.732,41.31 27,40.212 27,39 l 0,-9 c 0,-1.659 1.341,-3 3,-3 l 9,0 c 1.212,0 2.31,0.732 2.772,1.851 0.462,1.122 0.207,2.412 -0.651,3.27 L 38.742,34.5 z"
         inkscape:connector-curvature="0"
         style="fill:#cccccc" />
    </g>
    <g
       style="fill:#cccccc"
       id="g3066"
       transform="translate(24.78014,172.58249)">
      <path
         id="path3058"
         d="M 24,48 C 14.061,48 6,43.971 6,39 l 0,0 0,-5.064 C 6,38.91 14.061,42 24,42 c 9.939,0 18,-3.09 18,-8.064 l 0,5.064 0,0 c 0,4.971 -8.061,9 -18,9 z m 0,-9 C 14.061,39 6,34.971 6,30 L 6,24.936 C 6,29.91 14.061,33 24,33 33.939,33 42,29.91 42,24.936 L 42,30 c 0,4.971 -8.061,9 -18,9 z m 0,-9 C 14.061,30 6,25.971 6,21 L 6,15.936 C 6,20.91 14.061,24 24,24 33.939,24 42,20.91 42,15.936 L 42,21 c 0,4.971 -8.061,9 -18,9 z m 0,-9 C 14.061,21 6,16.971 6,12 L 6,9 C 6,4.029 14.061,0 24,0 33.939,0 42,4.029 42,9 l 0,3 c 0,4.971 -8.061,9 -18,9 z"
         inkscape:connector-curvature="0"
         style="fill:#cccccc" />
    </g>
    <g
       style="fill:#cccccc"
       id="g3078"
       transform="translate(758.22901,432.21584)">
      <path
         id="path3070"
         d="M 24,48 C 15.714,48 9,41.286 9,33 9,24.714 24,0 24,0 24,0 39,24.714 39,33 39,41.286 32.286,48 24,48 z M 32.832,31.653 C 32.058,35.832 28.404,39 24,39 19.596,39 15.942,35.832 15.168,31.653 15.066,32.154 15,32.619 15,33 c 0,4.971 4.029,9 9,9 4.971,0 9,-4.029 9,-9 0,-0.381 -0.066,-0.846 -0.168,-1.347 z"
         inkscape:connector-curvature="0"
         style="fill:#cccccc" />
    </g>
    <g
       style="fill:#cccccc"
       id="g3090"
       transform="translate(398.65851,303.60372)">
      <path
         id="path3082"
         d="M 39,3 45,3 45,16.017 39,9.159 39,3 z M 42,24 24,3.432 6,24 0,24 21,0 27,0 48,24 42,24 z M 42,27.876 42,48 30,48 30,33 c 0,-1.659 -1.341,-3 -3,-3 l -6,0 c -1.656,0 -3,1.341 -3,3 L 18,48 6,48 6,27.873 24,7.983 42,27.876 z"
         inkscape:connector-curvature="0"
         style="fill:#cccccc" />
    </g>
    <g
       style="fill:#cccccc"
       id="g3102"
       transform="translate(681.51566,836.46087)">
      <path
         id="path3094"
         d="m 45,24 c 0,6.627 -5.373,12 -12,12 -6.627,0 -12,-5.373 -12,-12 0,-3.312 -2.688,-6 -6,-6 -3.312,0 -6,2.688 -6,6 0,3.312 2.688,6 6,6 0.366,0 0.72,-0.045 1.068,-0.108 0.687,1.971 1.698,3.765 2.982,5.358 C 17.781,35.706 16.431,36 15,36 8.373,36 3,30.627 3,24 3,17.373 8.373,12 15,12 c 6.627,0 12,5.373 12,12 0,3.312 2.688,6 6,6 3.312,0 6,-2.688 6,-6 l 0,0 c 0,-3.312 -2.688,-6 -6,-6 -0.366,0 -0.72,0.045 -1.068,0.108 C 31.245,16.137 30.237,14.343 28.95,12.75 30.219,12.294 31.569,12 33,12 c 6.627,0 12,5.373 12,12 l 0,0 z"
         inkscape:connector-curvature="0"
         style="fill:#cccccc" />
    </g>
    <g
       style="fill:#cccccc"
       id="g3114"
       transform="translate(364.94422,39.88943)">
      <path
         id="path3106"
         d="M 24,48 18,30 0,24 48,0 24,48 z M 24,36 39,9 21,27 l 3,9 z"
         inkscape:connector-curvature="0"
         style="fill:#cccccc" />
    </g>
    <g
       style="fill:#cccccc"
       id="g3126"
       transform="translate(525.80137,442.17514)">
      <path
         id="path3118"
         d="M 43.437,19.437 28.515,4.515 33,0 48,15 43.437,19.437 z m -4.44,4.323 C 38.895,23.859 38.814,23.913 38.718,24 L 36,24 33,24 30,36 6,48 3,48 12.54,38.46 C 13.293,38.802 14.121,39 15,39 c 3.312,0 6,-2.688 6,-6 0,-3.312 -2.688,-6 -6,-6 -3.312,0 -6,2.688 -6,6 0,0.879 0.198,1.707 0.54,2.46 L 0,45 0,42 12,18 24,15 24,12 24,9.084 c 0.057,-0.06 0.084,-0.111 0.147,-0.174 l 1.377,-1.386 14.874,14.874 -1.401,1.362 z"
         inkscape:connector-curvature="0"
         style="fill:#cccccc" />
    </g>
    <g
       style="fill:#cccccc"
       id="g3138"
       transform="translate(748.65851,169.318)">
      <path
         id="path3130"
         d="M 0,3 48,3 48,9 0,9 0,3 z m 36,12 0,6 -36,0 0,-6 36,0 z m -36,18 0,-6 42,0 0,6 -42,0 z m 0,12 0,-6 30,0 0,6 -30,0 z"
         inkscape:connector-curvature="0"
         style="fill:#cccccc" />
    </g>
    <g
       style="fill:#cccccc"
       id="g3150"
       transform="translate(568.65701,956.46123)">
      <path
         id="path3142"
         d="M 38.85,12.153 C 30.648,3.951 17.352,3.951 9.153,12.153 L 4.908,7.908 c 10.545,-10.545 27.642,-10.545 38.187,0 l -4.245,4.245 z m -23.334,6.363 -4.242,-4.245 c 7.029,-7.029 18.426,-7.029 25.452,0 l -4.242,4.245 c -4.683,-4.689 -12.285,-4.689 -16.968,0 z M 39,45 c 0,1.659 -1.341,3 -3,3 L 12,48 C 10.341,48 9,46.659 9,45 L 9,42 C 9.87,37.725 12.855,34.11 16.518,31.998 15.564,30.567 15,28.851 15,27 c 0,-4.971 4.029,-9 9,-9 4.971,0 9,4.029 9,9 0,1.851 -0.564,3.567 -1.518,4.998 C 35.145,34.11 38.13,37.725 39,42 l 0,3 z M 24,24 c -1.659,0 -3,1.341 -3,3 0,1.659 1.341,3 3,3 1.659,0 3,-1.341 3,-3 0,-1.659 -1.341,-3 -3,-3 z m 8.448,18 C 31.209,38.514 27.915,36 24,36 c -3.915,0 -7.209,2.514 -8.448,6 l 16.896,0 z"
         inkscape:connector-curvature="0"
         style="fill:#cccccc" />
    </g>
    <g
       style="fill:#cccccc"
       id="g3162"
       transform="translate(415.80137,567.89015)">
      <path
         id="path3154"
         d="m 39,6 c 4.971,0 9,4.029 9,9 l 0,12 c 0,4.971 -4.029,9 -9,9 l -27,0 0,3 c 0,1.212 -0.732,2.31 -1.851,2.772 -1.122,0.462 -2.412,0.204 -3.27,-0.651 l -6,-6 C 0.294,34.536 0,33.768 0,33 0,32.232 0.294,31.464 0.879,30.879 l 6,-6 C 7.737,24.021 9.027,23.766 10.149,24.228 11.268,24.69 12,25.788 12,27 l 0,3 27,0 c 1.659,0 3,-1.341 3,-3 l 0,-12 c 0,-1.656 -1.341,-3 -3,-3 l -24,0 c -1.656,0 -3,-1.344 -3,-3 0,-1.656 1.344,-3 3,-3 l 24,0 z"
         inkscape:connector-curvature="0"
         style="fill:#cccccc" />
    </g>
    <g
       style="fill:#cccccc"
       id="g3174"
       transform="translate(609.80138,42.17515)">
      <path
         id="path3166"
         d="m 39,39 -18,0 -6,9 -6,-9 0,0 C 4.029,39 0,34.968 0,30 L 0,9 C 0,4.029 4.029,0 9,0 l 30,0 c 4.968,0 9,4.029 9,9 l 0,21 c 0,4.968 -4.032,9 -9,9 z M 42,9 C 42,7.344 40.659,6 39,6 L 9,6 C 7.344,6 6,7.344 6,9 l 0,21 c 0,1.659 1.344,3 3,3 L 11.001,33 15,39 18.999,33 39,33 c 1.659,0 3,-1.341 3,-3 L 42,9 z"
         inkscape:connector-curvature="0"
         style="fill:#cccccc" />
    </g>
    <g
       style="fill:#cccccc"
       id="g3186"
       transform="translate(787.22996,697.96086)">
      <path
         id="path3178"
         d="m 37.5,33 -27,0 C 9.774,33 9.066,32.928 8.382,32.787 6.333,32.367 4.5,31.35 3.072,29.925 1.176,28.026 0,25.401 0,22.5 0,16.698 4.701,12 10.5,12 16.299,12 21,16.698 21,22.5 c 0,1.617 -0.396,3.132 -1.05,4.5 l 8.1,0 C 27.396,25.632 27,24.117 27,22.5 27,16.698 31.701,12 37.5,12 43.299,12 48,16.698 48,22.5 48,28.299 43.299,33 37.5,33 z M 15,22.5 C 15,20.016 12.987,18 10.5,18 8.013,18 6,20.016 6,22.5 6,24.984 8.013,27 10.5,27 12.987,27 15,24.984 15,22.5 z M 37.5,18 C 35.016,18 33,20.016 33,22.5 33,24.984 35.016,27 37.5,27 39.984,27 42,24.984 42,22.5 42,20.016 39.984,18 37.5,18 z"
         inkscape:connector-curvature="0"
         style="fill:#cccccc" />
    </g>
    <g
       style="fill:#cccccc"
       id="g3198"
       transform="translate(262.94422,161.74657)">
      <path
         id="path3190"
         d="m 40.971,25.029 -4.245,4.245 c -7.029,-7.032 -18.426,-7.032 -25.452,0 L 7.029,25.029 c 9.372,-9.372 24.567,-9.372 33.942,0 z m -6.366,6.366 -4.242,4.242 c -3.513,-3.516 -9.21,-3.516 -12.726,0 l -4.242,-4.242 c 5.856,-5.859 15.354,-5.859 21.21,0 z M 24,36 c 3.312,0 6,2.688 6,6 0,3.312 -2.688,6 -6,6 -3.312,0 -6,-2.688 -6,-6 0,-3.312 2.688,-6 6,-6 z"
         inkscape:connector-curvature="0"
         style="fill:#cccccc" />
    </g>
    <g
       style="fill:#cccccc"
       id="g3599"
       transform="translate(434.30137,829.31801)">
      <path
         id="path3591"
         d="m 36,3 c 0,-1.659 1.341,-3 3,-3 1.659,0 3,1.341 3,3 l 0,28.5 C 42,40.614 34.611,48 25.5,48 16.389,48 9,40.614 9,31.5 L 9,12 C 9,5.373 14.373,0 21,0 27.627,0 33,5.373 33,12 l 0,19.5 C 33,35.643 29.643,39 25.5,39 21.357,39 18,35.643 18,31.5 L 18,12 c 0,-1.656 1.341,-3 3,-3 1.659,0 3,1.344 3,3 l 0,19.5 c 0,0.828 0.672,1.5 1.5,1.5 0.828,0 1.5,-0.672 1.5,-1.5 L 27,12 C 27,8.688 24.312,6 21,6 17.688,6 15,8.688 15,12 l 0,19.5 C 15,37.299 19.701,42 25.5,42 31.299,42 36,37.299 36,31.5 L 36,3 z"
         inkscape:connector-curvature="0"
         style="fill:#cccccc" />
    </g>
    <g
       style="fill:#cccccc"
       id="g3611"
       transform="translate(172.94422,569.31801)">
      <path
         id="path3603"
         d="M 24,48 C 10.746,48 0,37.254 0,24 0,10.746 10.746,0 24,0 37.254,0 48,10.746 48,24 48,37.254 37.254,48 24,48 z m 0,-6 c 8.817,0 16.122,-6.348 17.67,-14.715 -5.886,4.596 -14.376,4.251 -19.791,-1.164 -3.516,-3.516 -9.213,-3.516 -12.729,0 C 8.121,27.153 7.428,28.38 7.002,29.679 9.39,36.819 16.056,42 24,42 z M 24,6 C 15.183,6 7.878,12.348 6.33,20.715 c 5.886,-4.596 14.376,-4.251 19.791,1.164 3.516,3.516 9.213,3.516 12.726,0 1.032,-1.032 1.722,-2.259 2.151,-3.558 C 38.61,11.184 31.944,6 24,6 z"
         inkscape:connector-curvature="0"
         style="fill:#cccccc" />
    </g>
    <g
       style="fill:#cccccc"
       id="g3623"
       transform="translate(310.08708,697.88944)">
      <path
         id="path3615"
         d="m 30,30 -12,0 c -0.849,0 -1.608,0.36 -2.154,0.927 C 18.882,32.37 21,35.418 21,39 21,43.971 16.971,48 12,48 7.029,48 3,43.971 3,39 3,35.085 5.511,31.791 9,30.549 L 9,17.448 C 5.511,16.209 3,12.915 3,9 3,4.029 7.029,0 12,0 c 4.971,0 9,4.029 9,9 0,3.915 -2.511,7.209 -6,8.448 l 0,7.104 C 15.942,24.216 16.941,24 18,24 l 12,0 c 1.659,0 3,-1.341 3,-3 l 0,-0.552 C 29.514,19.209 27,15.915 27,12 c 0,-4.971 4.032,-9 9,-9 4.968,0 9,4.029 9,9 0,3.915 -2.514,7.209 -6,8.448 L 39,21 c 0,4.971 -4.032,9 -9,9 z M 36,9 c 1.659,0 3,1.341 3,3 0,1.659 -1.341,3 -3,3 -1.659,0 -3,-1.341 -3,-3 0,-1.659 1.341,-3 3,-3 z M 12,6 c 1.656,0 3,1.341 3,3 0,1.659 -1.344,3 -3,3 C 10.344,12 9,10.659 9,9 9,7.341 10.344,6 12,6 z m 0,30 c 1.656,0 3,1.341 3,3 0,1.659 -1.344,3 -3,3 -1.656,0 -3,-1.341 -3,-3 0,-1.659 1.344,-3 3,-3 z"
         inkscape:connector-curvature="0"
         style="fill:#cccccc" />
    </g>
    <g
       style="fill:#cccccc"
       id="g3635"
       transform="translate(198.5744,827.04239)">
      <path
         id="path3627"
         d="M 45,27 C 44.814,27 44.658,26.928 44.481,26.895 43.272,30.438 39.951,33 36,33 l 0,-21 -3,0 C 33,10.344 31.659,9 30,9 L 18,9 c -1.656,0 -3,1.344 -3,3 l -3,0 0,18 0,3 0,3 c 0,1.659 1.344,3 3,3 0,-1.659 1.344,-3 3,-3 l 3,0 c 1.656,0 3,1.341 3,3 l 0,3 c 0,1.659 -1.344,3 -3,3 l -3,0 C 16.344,45 15,43.659 15,42 11.688,42 9,39.312 9,36 L 9,32.466 C 6.429,31.548 4.404,29.49 3.519,26.895 3.345,26.928 3.186,27 3,27 1.344,27 0,25.656 0,24 0,22.344 1.344,21 3,21 3.177,21 3.33,21.072 3.501,21.102 4.389,18.516 6.423,16.467 9,15.552 L 9,12 C 9,7.029 13.029,3 18,3 l 12,0 c 4.971,0 9,4.029 9,9 l 0,3.552 c 2.577,0.918 4.608,2.967 5.502,5.55 C 44.67,21.072 44.82,21 45,21 c 1.659,0 3,1.344 3,3 0,1.656 -1.341,3 -3,3 z m -36,-6 -3,0 0,6 3,0 0,-6 z m 33,0 -3,0 0,6 3,0 0,-6 z"
         inkscape:connector-curvature="0"
         style="fill:#cccccc" />
    </g>
    <g
       style="fill:#cccccc"
       id="g3647"
       transform="translate(335.95486,958.36221)">
      <path
         id="path3639"
         d="m 44.772,25.851 c 0.465,1.122 0.207,2.412 -0.651,3.27 l -6,6 C 37.536,35.706 36.768,36 36,36 35.232,36 34.464,35.706 33.879,35.121 l -6,-6 C 27.021,28.263 26.766,26.973 27.228,25.851 27.69,24.732 28.788,24 30,24 l 3,0 C 33,17.373 27.627,12 21,12 14.373,12 9,17.373 9,24 c 0,6.627 5.373,12 12,12 1.563,0 3.042,-0.318 4.413,-0.861 l 4.524,4.47 C 27.303,41.121 24.255,42 21,42 11.061,42 3,33.939 3,24 3,14.061 11.061,6 21,6 c 9.939,0 18,8.061 18,18 l 3,0 c 1.212,0 2.31,0.732 2.772,1.851 z"
         inkscape:connector-curvature="0"
         style="fill:#cccccc" />
    </g>
    <g
       style="fill:#cccccc"
       id="g3659"
       transform="translate(132.37279,39.03228)">
      <path
         id="path3651"
         d="m 24,3 c 4.962,0 9,4.038 9,9 0,0.246 -0.03,0.489 -0.09,0.732 l -2.925,11.7 C 29.763,27.54 27.165,30 24,30 20.889,30 18.318,27.618 18.03,24.579 17.289,22.401 15,15.384 15,12 15,7.038 19.038,3 24,3 z m 0,30 c 3.309,0 6,2.691 6,6 0,3.309 -2.691,6 -6,6 -3.309,0 -6,-2.691 -6,-6 0,-3.309 2.691,-6 6,-6 z"
         inkscape:connector-curvature="0"
         style="fill:#cccccc" />
    </g>
    <g
       style="fill:#cccccc"
       id="g3671"
       transform="translate(152.37279,301.88942)">
      <path
         id="path3663"
         d="m 45,27 -6,0 c -1.659,0 -3,-1.341 -3,-3 0,-1.656 1.341,-3 3,-3 l 6,0 c 1.659,0 3,1.344 3,3 0,1.659 -1.341,3 -3,3 z M 36.726,15.516 c -1.173,1.173 -3.069,1.173 -4.242,0 -1.173,-1.173 -1.173,-3.069 0,-4.242 l 4.242,-4.245 c 1.173,-1.17 3.069,-1.17 4.242,0 1.173,1.173 1.173,3.072 0,4.245 l -4.242,4.242 z M 24,48 c -1.656,0 -3,-1.341 -3,-3 l 0,-6 c 0,-1.656 1.344,-3 3,-3 1.659,0 3,1.344 3,3 l 0,6 c 0,1.659 -1.341,3 -3,3 z m 0,-36 c -1.656,0 -3,-1.341 -3,-3 l 0,-6 c 0,-1.656 1.344,-3 3,-3 1.659,0 3,1.344 3,3 l 0,6 c 0,1.659 -1.341,3 -3,3 z M 11.271,40.971 c -1.173,1.173 -3.069,1.173 -4.242,0 -1.173,-1.173 -1.173,-3.072 0,-4.242 l 4.242,-4.245 c 1.173,-1.17 3.072,-1.17 4.242,0 1.173,1.173 1.173,3.072 0,4.245 l -4.242,4.242 z m 0,-25.455 -4.242,-4.242 c -1.173,-1.173 -1.173,-3.072 0,-4.245 1.173,-1.17 3.069,-1.17 4.242,0 l 4.242,4.245 c 1.173,1.173 1.173,3.069 0,4.242 -1.17,1.17 -3.069,1.17 -4.242,0 z M 12,24 c 0,1.659 -1.344,3 -3,3 L 3,27 C 1.344,27 0,25.659 0,24 0,22.344 1.344,21 3,21 l 6,0 c 1.656,0 3,1.344 3,3 z m 24.726,8.484 4.242,4.245 c 1.173,1.17 1.173,3.069 0,4.242 -1.173,1.173 -3.069,1.173 -4.242,0 l -4.242,-4.242 c -1.173,-1.173 -1.173,-3.072 0,-4.245 1.173,-1.17 3.072,-1.17 4.242,0 z"
         inkscape:connector-curvature="0"
         style="fill:#cccccc" />
    </g>
    <g
       style="fill:#cccccc"
       id="g3683"
       transform="translate(70.65851,700.74657)"
       inkscape:transform-center-y="10">
      <path
         id="path3675"
         d="m 45.363,23.637 -21,-21 C 22.605,0.879 20.304,0 18,0 L 0,0 0,18 c 0,2.304 0.879,4.605 2.637,6.363 l 21,21 c 3.516,3.516 9.21,3.516 12.726,0 l 9,-9 c 3.516,-3.516 3.516,-9.21 0,-12.726 z m -4.242,8.484 -9,9 c -1.173,1.173 -3.069,1.173 -4.242,0 l -21,-21 C 6.294,19.536 6,18.768 6,18 L 6,6 18,6 c 0.768,0 1.536,0.294 2.121,0.879 l 21,21 c 1.173,1.173 1.173,3.069 0,4.242 z M 12,9 c -1.659,0 -3,1.341 -3,3 0,1.659 1.341,3 3,3 1.659,0 3,-1.341 3,-3 0,-1.659 -1.341,-3 -3,-3 z"
         inkscape:connector-curvature="0"
         style="fill:#cccccc" />
    </g>
    <g
       style="fill:#cccccc"
       id="g3695"
       transform="translate(42.94423,431.88943)">
      <path
         id="path3687"
         d="M 24,48 C 10.746,48 0,37.254 0,24 0,10.746 10.746,0 24,0 37.254,0 48,10.746 48,24 48,37.254 37.254,48 24,48 z M 24,6 C 14.061,6 6,14.061 6,24 6,33.942 14.061,42 24,42 33.939,42 42,33.942 42,24 42,14.061 33.939,6 24,6 z m 0,33 C 20.769,39 17.796,37.956 15.345,36.216 15.129,35.688 15,35.109 15,34.5 l 0,0 c 0.462,-2.751 2.313,-5.064 4.671,-6.366 C 18.639,27.06 18,25.605 18,24 l 0,-3 c 0,-3.312 2.688,-6 6,-6 3.312,0 6,2.688 6,6 l 0,3 c 0,1.605 -0.639,3.06 -1.668,4.134 2.355,1.302 4.206,3.615 4.668,6.366 l 0,0 c 0,0.609 -0.129,1.188 -0.345,1.716 C 30.204,37.956 27.231,39 24,39 z"
         inkscape:connector-curvature="0"
         style="fill:#cccccc" />
    </g>
    <g
       style="fill:#cccccc;display:inline"
       id="g3067"
       transform="translate(808.00908,956.02156)">
      <path
         id="path3058-3"
         d="M 39,48 9,48 C 7.341,48 6,46.659 6,45 L 6,3 C 6,1.341 7.341,0 9,0 l 21,0 12,12 0,33 c 0,1.659 -1.341,3 -3,3 z M 27,15 27,6 12,6 l 0,36 24,0 0,-27 -9,0 z"
         inkscape:connector-curvature="0"
         style="fill:#cccccc" />
    </g>
    <g
       style="fill:#cccccc;display:inline"
       id="g3079"
       transform="translate(846.3303,35.84526)">
      <path
         id="path3071"
         d="m 42,30 c -3.312,0 -6,-2.688 -6,-6 0,-3.312 2.688,-6 6,-6 3.312,0 6,2.688 6,6 0,3.312 -2.688,6 -6,6 z m -18,0 c -3.312,0 -6,-2.688 -6,-6 0,-3.312 2.688,-6 6,-6 3.312,0 6,2.688 6,6 0,3.312 -2.688,6 -6,6 z M 6,30 c -3.312,0 -6,-2.688 -6,-6 0,-3.312 2.688,-6 6,-6 3.312,0 6,2.688 6,6 0,3.312 -2.688,6 -6,6 z"
         inkscape:connector-curvature="0"
         style="fill:#cccccc" />
    </g>
  </g>
  <g
     inkscape:groupmode="layer"
     id="layer4"
     inkscape:label="lines"
     style="display:none">
    <path
       inkscape:connector-curvature="0"
       id="path3235"
       d="M 460.5389,-110.58505 C 1502.6817,931.55775 1511.2531,940.12925 1511.2531,940.12925"
       style="fill:none;stroke:#000000;stroke-width:1px;stroke-linecap:butt;stroke-linejoin:miter;stroke-opacity:1;display:inline" />
    <path
       style="fill:none;stroke:#000000;stroke-width:1px;stroke-linecap:butt;stroke-linejoin:miter;stroke-opacity:1;display:inline"
       d="m 967.3246,61.62924 c -1218.57147,0 -1218.57147,0 -1218.57147,0"
       id="path3298"
       inkscape:connector-curvature="0" />
    <path
       style="fill:none;stroke:#000000;stroke-width:1px;stroke-linecap:butt;stroke-linejoin:miter;stroke-opacity:1;display:inline"
       d="m 968.0389,193.62924 c -1218.57148,0 -1218.57148,0 -1218.57148,0"
       id="path3298-6"
       inkscape:connector-curvature="0" />
    <path
       inkscape:connector-curvature="0"
       id="path3396"
       d="m 968.0389,325.62924 c -1218.57148,0 -1218.57148,0 -1218.57148,0"
       style="fill:none;stroke:#000000;stroke-width:1px;stroke-linecap:butt;stroke-linejoin:miter;stroke-opacity:1;display:inline" />
    <path
       inkscape:connector-curvature="0"
       id="path3413"
       d="m 968.0389,455.62924 c -1218.57148,0 -1218.57148,0 -1218.57148,0"
       style="fill:none;stroke:#000000;stroke-width:1px;stroke-linecap:butt;stroke-linejoin:miter;stroke-opacity:1;display:inline" />
    <path
       style="fill:none;stroke:#000000;stroke-width:1px;stroke-linecap:butt;stroke-linejoin:miter;stroke-opacity:1;display:inline"
       d="m 968.0389,587.62924 c -1218.57148,0 -1218.57148,0 -1218.57148,0"
       id="path3415"
       inkscape:connector-curvature="0" />
    <path
       inkscape:connector-curvature="0"
       id="path3434"
       d="m 968.0389,719.62924 c -1218.57148,0 -1218.57148,0 -1218.57148,0"
       style="fill:none;stroke:#000000;stroke-width:1px;stroke-linecap:butt;stroke-linejoin:miter;stroke-opacity:1;display:inline" />
    <path
       style="fill:none;stroke:#000000;stroke-width:1px;stroke-linecap:butt;stroke-linejoin:miter;stroke-opacity:1;display:inline"
       d="m 968.0389,851.62924 c -1218.57148,0 -1218.57148,0 -1218.57148,0"
       id="path3436"
       inkscape:connector-curvature="0" />
    <path
       style="fill:none;stroke:#000000;stroke-width:1px;stroke-linecap:butt;stroke-linejoin:miter;stroke-opacity:1;display:inline"
       d="m 968.0389,981.62925 c -1218.57148,0 -1218.57148,0 -1218.57148,0"
       id="path3438"
       inkscape:connector-curvature="0" />
    <path
       inkscape:connector-curvature="0"
       id="path3440"
       d="m 968.0389,1113.6292 c -1218.57148,0 -1218.57148,0 -1218.57148,0"
       style="fill:none;stroke:#000000;stroke-width:1px;stroke-linecap:butt;stroke-linejoin:miter;stroke-opacity:1;display:inline" />
    <path
       style="fill:none;stroke:#000000;stroke-width:1px;stroke-linecap:butt;stroke-linejoin:miter;stroke-opacity:1;display:inline"
       d="M 240.5389,-90.58505 C 1282.6817,951.55775 1291.2531,960.12925 1291.2531,960.12925"
       id="path3529"
       inkscape:connector-curvature="0" />
    <path
       style="fill:none;stroke:#000000;stroke-width:1px;stroke-linecap:butt;stroke-linejoin:miter;stroke-opacity:1;display:inline"
       d="M 16.25317,-74.87076 C 1058.396,967.27205 1066.9674,975.84355 1066.9674,975.84355"
       id="path3531"
       inkscape:connector-curvature="0" />
    <path
       inkscape:connector-curvature="0"
       id="path3548"
       d="M -181.46117,-34.58505 C 860.6817,1007.5578 869.2531,1016.1292 869.2531,1016.1292"
       style="fill:none;stroke:#000000;stroke-width:1px;stroke-linecap:butt;stroke-linejoin:miter;stroke-opacity:1;display:inline" />
    <path
       inkscape:connector-curvature="0"
       id="path3550"
       d="M -405.74683,-18.87076 C 636.396,1023.2721 644.9674,1031.8436 644.9674,1031.8436"
       style="fill:none;stroke:#000000;stroke-width:1px;stroke-linecap:butt;stroke-linejoin:miter;stroke-opacity:1;display:inline" />
    <path
       style="fill:none;stroke:#000000;stroke-width:1px;stroke-linecap:butt;stroke-linejoin:miter;stroke-opacity:1;display:inline"
       d="M -401.46117,225.41495 C 640.6817,1267.5578 649.2531,1276.1292 649.2531,1276.1292"
       id="path3567"
       inkscape:connector-curvature="0" />
    <path
       style="fill:none;stroke:#000000;stroke-width:1px;stroke-linecap:butt;stroke-linejoin:miter;stroke-opacity:1;display:inline"
       d="M -625.74683,241.12924 C 416.396,1283.2721 424.9674,1291.8436 424.9674,1291.8436"
       id="path3569"
       inkscape:connector-curvature="0" />
    <path
       inkscape:connector-curvature="0"
       id="path3586"
       d="M -661.46117,445.41496 C 380.6817,1487.5578 389.2531,1496.1292 389.2531,1496.1292"
       style="fill:none;stroke:#000000;stroke-width:1px;stroke-linecap:butt;stroke-linejoin:miter;stroke-opacity:1;display:inline" />
    <path
       inkscape:connector-curvature="0"
       id="path3588"
       d="M -885.74683,461.12924 C 156.396,1503.2721 164.9674,1511.8436 164.9674,1511.8436"
       style="fill:none;stroke:#000000;stroke-width:1px;stroke-linecap:butt;stroke-linejoin:miter;stroke-opacity:1;display:inline" />
    <path
       style="fill:none;stroke:#000000;stroke-width:1px;stroke-linecap:butt;stroke-linejoin:miter;stroke-opacity:1;display:inline"
       d="M 700.5389,-110.58505 C 1742.6817,931.55775 1751.2531,940.12925 1751.2531,940.12925"
       id="path3067"
       inkscape:connector-curvature="0" />
    <path
       inkscape:connector-curvature="0"
       id="path3069"
       d="M 480.5389,-90.58505 C 1522.6817,951.55775 1531.2531,960.12925 1531.2531,960.12925"
       style="fill:none;stroke:#000000;stroke-width:1px;stroke-linecap:butt;stroke-linejoin:miter;stroke-opacity:1;display:inline" />
  </g>
</svg>
